<?xml version="1.0" encoding="UTF-8" standalone="no"?>
<!-- Generator: Adobe Illustrator 19.0.0, SVG Export Plug-In . SVG Version: 6.00 Build 0)  -->

<svg
   xmlns:dc="http://purl.org/dc/elements/1.1/"
   xmlns:cc="http://creativecommons.org/ns#"
   xmlns:rdf="http://www.w3.org/1999/02/22-rdf-syntax-ns#"
   xmlns:svg="http://www.w3.org/2000/svg"
   xmlns="http://www.w3.org/2000/svg"
   xmlns:sodipodi="http://sodipodi.sourceforge.net/DTD/sodipodi-0.dtd"
   xmlns:inkscape="http://www.inkscape.org/namespaces/inkscape"
   version="1.1"
   id="Layer_1"
   x="0px"
   y="0px"
   viewBox="0 0 512.001 512.001"
   style="enable-background:new 0 0 512.001 512.001;"
   xml:space="preserve"
   sodipodi:docname="planet-white.svg"
   inkscape:version="0.92.4 (5da689c313, 2019-01-14)"><metadata
   id="metadata983"><rdf:RDF><cc:Work
       rdf:about=""><dc:format>image/svg+xml</dc:format><dc:type
         rdf:resource="http://purl.org/dc/dcmitype/StillImage" /><dc:title></dc:title></cc:Work></rdf:RDF></metadata><defs
   id="defs981" /><sodipodi:namedview
   pagecolor="#ffffff"
   bordercolor="#666666"
   borderopacity="1"
   objecttolerance="10"
   gridtolerance="10"
   guidetolerance="10"
   inkscape:pageopacity="0"
   inkscape:pageshadow="2"
   inkscape:window-width="1438"
   inkscape:window-height="912"
   id="namedview979"
   showgrid="false"
   inkscape:zoom="0.46093662"
   inkscape:cx="-96.542557"
   inkscape:cy="256.00049"
   inkscape:window-x="-7"
   inkscape:window-y="40"
   inkscape:window-maximized="0"
   inkscape:current-layer="Layer_1" />
<g
   id="g940"
   style="fill:#ffffff">
	<g
   id="g938"
   style="fill:#ffffff">
		<path
   d="M457.028,239.808c-58.373,76.469-138.845,157.397-217.242,217.241C363.969,467.056,467.033,363.966,457.028,239.808z"
   id="path936"
   style="fill:#ffffff" />
	</g>
</g>
<g
   id="g946"
   style="fill:#ffffff">
	<g
   id="g944"
   style="fill:#ffffff">
		<path
   d="M498.975,13.294c-33.042-33.042-102.488,2.952-142.725,27.507c12.418,5.771,24.346,12.634,35.66,20.547    c15.593-8.646,69.142-35.424,81.793-22.781c16.935,16.935-29.565,94.651-43.478,115.778    C364.696,41.502,207.518,19.551,113.521,113.543c-56.934,56.933-71.376,137.183-48.666,206.184    C30,369.125-25.638,460.089,13.272,498.996C111.331,597.057,597.148,111.467,498.975,13.294z M38.546,473.724    c-16.553-16.551,27.542-91.575,43.465-115.72c16.756,28.872,41.006,54.035,72.255,72.219    C91.397,471.475,48.442,483.621,38.546,473.724z"
   id="path942"
   style="fill:#ffffff" />
	</g>
</g>
<g
   id="g948">
</g>
<g
   id="g950">
</g>
<g
   id="g952">
</g>
<g
   id="g954">
</g>
<g
   id="g956">
</g>
<g
   id="g958">
</g>
<g
   id="g960">
</g>
<g
   id="g962">
</g>
<g
   id="g964">
</g>
<g
   id="g966">
</g>
<g
   id="g968">
</g>
<g
   id="g970">
</g>
<g
   id="g972">
</g>
<g
   id="g974">
</g>
<g
   id="g976">
</g>
</svg>